<svg width="40" height="40" viewBox="0 0 40 40" fill="none" xmlns="http://www.w3.org/2000/svg"><path fill-rule="evenodd" clip-rule="evenodd" d="M37.368 17.73c0 .455-.212.696-.636.696h-2.027v-1.421c0-1.06-.151-1.604-1.059-1.604h-.908c-.907 0-1.059.545-1.059 1.604v1.421h-1.422c-1.058 0-1.603.152-1.603 1.06v.968c0 .907.545 1.06 1.603 1.06h1.422v1.42c0 1.06.152 1.604 1.059 1.604h.908c.908 0 1.06-.544 1.06-1.603v-1.422h2.026c.394 0 .606.212.636.605v4.599c0 1.12-.333 1.967-1.12 2.723l-6.747 6.747c-.787.787-1.664 1.15-2.753 1.15H13.252c-1.089 0-1.966-.363-2.753-1.15L3.752 29.44c-.786-.786-1.15-1.603-1.12-2.723V13.374c0-1.12.364-2.088 1.18-2.905l6.869-6.96c.696-.695 1.573-.907 2.571-.907h13.496c.998 0 1.875.212 2.571.908l6.869 6.959c.786.817 1.18 1.785 1.18 2.905v4.357zM31.164 1.756C29.985.605 28.503 0 26.718 0H13.283c-1.785 0-3.298.605-4.448 1.755l-7.11 7.08C.604 9.955 0 11.437 0 13.071v13.646c0 1.876.636 3.329 1.906 4.57l6.748 6.746c1.33 1.332 2.813 1.937 4.72 1.907h13.253c1.845 0 3.358-.545 4.72-1.907l6.747-6.747c1.24-1.24 1.906-2.723 1.906-4.569V13.071c0-1.634-.605-3.116-1.725-4.236l-7.11-7.08zM12.29 10.832H9.536c-1.059 0-1.604.182-1.604 1.06v.997c0 .878.545 1.06 1.604 1.06h.635c.394 0 .575.211.575.816v13.072c0 1.059.181 1.603 1.06 1.603h1.027c.878 0 1.06-.544 1.06-1.603V11.89c0-.877-.545-1.059-1.604-1.059zm6.955 13.313c0 1.906.696 2.663 2.632 2.663 1.936 0 2.633-.757 2.633-2.663 0-1.906-.697-2.784-2.633-2.784s-2.633.878-2.633 2.784zm4.962-8.23c0-2.027-.666-2.632-2.33-2.632-1.664 0-2.33.605-2.33 2.633 0 1.966.666 2.632 2.33 2.632 1.664 0 2.33-.666 2.33-2.632zm2.965.333c0 1.03-.03 2.3-1.725 3.54 2.028.787 2.18 2.512 2.18 4.78 0 3.36-1.181 5.023-5.75 5.115-4.569-.091-5.749-1.756-5.749-5.114 0-2.269.152-3.994 2.179-4.78-1.695-1.24-1.725-2.512-1.725-3.54v-1.03c.182-3.419 1.332-4.72 5.295-4.72 3.964 0 5.113 1.301 5.295 4.72v1.03z" fill="#FFFFFE"/></svg>