<svg xmlns="http://www.w3.org/2000/svg" viewBox="0 0 130 38"><path d="M16.2 35.6c-1.3.8-2.7 1.4-4.2 1.9-1.2.3-2.4.5-3.6.5-2.3.2-4.5-.6-6.2-2.1C.7 34.4-.1 32.3 0 30.2c0-1.3.2-2.5.9-3.6.6-1 1.3-1.8 2.3-2.4.9-.6 2-1.1 3.1-1.4 1-.3 2.1-.4 3.2-.4l6.7-.1v-1.1c.1-1-.3-2-1.1-2.7-1.1-.7-2.4-1-3.7-.9-1.1 0-2.1.2-3.1.4-1.4.3-2.7 1-3.7 1.9l-3-4.8c1.6-1.3 3.5-2.2 5.5-2.8 1.7-.4 3.4-.6 5.1-.7 3.7 0 6.4.8 8.2 2.4 1.7 1.7 2.6 4.2 2.7 7.5l.1 16.1h-6.1l-.5-2.1-.4.1zm0-8.5h-5.6c-.4 0-.8 0-1.2.1-.4.1-.8.2-1.1.4-.3.2-.6.5-.8.8-.2.4-.3.8-.3 1.3 0 .7.3 1.3.8 1.7.7.5 1.5.7 2.3.6 1.1 0 2.3-.2 3.3-.7l2.7-1.2-.1-3zm21.7 10.7c-1 0-1.9 0-2.9-.1s-1.9-.2-2.9-.5c-2.1-.5-4.1-1.6-5.8-3l3.6-4.8c1.1 1 2.5 1.7 3.9 2.2 1.3.4 2.6.6 3.9.6 1 0 2-.2 2.9-.7.7-.3 1.1-1 1.1-1.8 0-.6-.3-1.1-.7-1.5-.8-.5-1.6-.8-2.5-.9-1.2-.2-2.4-.4-3.7-.7-1.2-.2-2.4-.6-3.5-1.1-1-.5-1.9-1.2-2.6-2.1-.7-1.1-1.1-2.3-1-3.6 0-1.2.2-2.5.8-3.6.5-1 1.3-1.9 2.2-2.6.9-.7 2-1.2 3.1-1.6 1.2-.4 2.4-.5 3.6-.5 1.9 0 3.8.1 5.6.5 1.8.4 3.5 1.2 5 2.4l-3.1 5c-1.2-.8-2.5-1.4-3.9-1.7-1.2-.2-2.3-.4-3.5-.4-.9-.1-1.8.2-2.5.7-.5.4-.8 1-.8 1.6 0 .7.4 1.2 1.1 1.4.9.3 1.8.6 2.7.7l3.4.6c1.2.2 2.4.6 3.5 1.1 1.1.5 2 1.3 2.7 2.2.8 1.1 1.1 2.5 1.1 3.9 0 1.2-.2 2.5-.8 3.6-.6 1-1.4 1.9-2.3 2.6-1 .7-2.2 1.3-3.4 1.6-1.4.3-2.8.5-4.3.5zm30.9-.5l-.1-15.9c.1-1.1-.3-2.2-1.1-3-.7-.6-1.5-.8-2.4-.8-.9 0-1.8.2-2.7.6-1.2.5-2.3 1.1-3.4 1.8l.1 17.5-6.7.1L52.3 0H59l.1 13.9c1.5-1 3.1-1.8 4.8-2.2 1.1-.3 2.2-.4 3.3-.5 2.9 0 5 .8 6.3 2.5 1.4 2 2 4.4 1.9 6.8l.1 16.8h-6.7zm33.9-9.5c0 1.5-.3 2.9-.9 4.2-.6 1.2-1.5 2.2-2.5 3-1.1.8-2.3 1.4-3.6 1.8-1.4.4-2.8.6-4.2.6-1.4 0-2.9-.2-4.3-.5-1.3-.3-2.6-.9-3.7-1.7-2.3-1.6-3.6-4.3-3.5-7.1l-.1-7.5c-.1-1.4.3-2.9.9-4.2.6-1.2 1.5-2.2 2.5-3 1.1-.8 2.3-1.4 3.6-1.8 1.4-.4 2.8-.6 4.3-.6s3 .2 4.4.6c1.3.4 2.6 1 3.6 1.8s1.9 1.8 2.5 3c.6 1.3.9 2.7.9 4.2l.1 7.2zM96 21.5c0-.7-.1-1.4-.4-2.1-.5-1.1-1.5-1.8-2.6-2.1-.5-.2-1.1-.2-1.7-.2-.6 0-1.1.1-1.7.2-.6.2-1.1.4-1.5.8-.4.4-.8.9-1 1.4-.3.7-.4 1.4-.4 2.1v5.1c0 .7.1 1.4.4 2.1.2.5.6 1 1.1 1.4.5.4 1 .6 1.5.8.6.2 1.2.2 1.8.2.6 0 1.1-.1 1.7-.3 1.1-.3 2.1-1.1 2.6-2.2.3-.7.4-1.4.4-2.1l-.2-5.1zm34 6.1c0 1.5-.3 2.9-.9 4.2-.6 1.2-1.5 2.2-2.5 3-1.1.8-2.3 1.4-3.6 1.8-2.8.8-5.7.8-8.4.1-1.3-.4-2.6-.9-3.7-1.7-2.3-1.6-3.6-4.3-3.5-7.1l-.1-7.5c-.1-1.5.3-2.9.9-4.2.6-1.2 1.5-2.2 2.5-3 1.1-.8 2.3-1.4 3.7-1.8 1.4-.4 2.8-.6 4.2-.6 1.5 0 3 .2 4.4.6 1.3.4 2.5 1 3.6 1.8 1 .8 1.9 1.8 2.5 3 .6 1.3 1 2.7.9 4.2v7.2zm-6.7-6.3c0-.7-.1-1.4-.4-2.1-.3-.5-.6-1-1.1-1.4-.4-.4-1-.6-1.5-.8-.5-.2-1.1-.2-1.6-.2-.6 0-1.2.1-1.7.2-.6.2-1.1.4-1.5.8-.5.4-.8.9-1.1 1.4-.3.7-.4 1.4-.4 2.1v5.1c0 .7.1 1.5.4 2.1.2.5.6 1 1.1 1.4.5.4 1 .6 1.5.8.6.2 1.2.2 1.8.2.6 0 1.1-.1 1.6-.2 1.1-.3 2.1-1.1 2.6-2.2.3-.7.4-1.4.4-2.1v-5.1z" fill="#fff"/></svg>