<svg width="63" height="63" viewBox="0 0 63 63" fill="none" xmlns="http://www.w3.org/2000/svg"><g filter="url(#filter0_d)"><path d="M42.412 14.372c1.546 16.684-9.44 28.586-27.04 27.04 7.506 7.065 19.309 6.947 26.648-.392 7.34-7.34 7.458-19.142.392-26.648z" fill="#FFD983"/></g><path d="M42.772 28.232a1.065 1.065 0 101.418 1.59 1.065 1.065 0 00-1.418-1.59zM28.104 41.397a1.593 1.593 0 001.738 2.601 1.594 1.594 0 00-.922-3.037 1.59 1.59 0 00-.816.436zm12.788-1.966a2.658 2.658 0 11-3.761-3.76 2.657 2.657 0 014.338.862 2.658 2.658 0 01-.577 2.898z" fill="#FFCC4D"/><defs><filter id="filter0_d" x=".372" y=".372" width="62.248" height="62.248" filterUnits="userSpaceOnUse" color-interpolation-filters="sRGB"><feFlood flood-opacity="0" result="BackgroundImageFix"/><feColorMatrix in="SourceAlpha" values="0 0 0 0 0 0 0 0 0 0 0 0 0 0 0 0 0 0 127 0"/><feOffset dy="1"/><feGaussianBlur stdDeviation="7.5"/><feColorMatrix values="0 0 0 0 1 0 0 0 0 0.89302 0 0 0 0 0.513726 0 0 0 1 0"/><feBlend in2="BackgroundImageFix" result="effect1_dropShadow"/><feBlend in="SourceGraphic" in2="effect1_dropShadow" result="shape"/></filter></defs></svg>