<svg width="66" height="66" viewBox="0 0 66 66" fill="none" xmlns="http://www.w3.org/2000/svg"><g filter="url(#filter0_d)"><path d="M33 49.553c9.694 0 17.553-7.859 17.553-17.553S42.694 14.447 33 14.447 15.447 22.306 15.447 32 23.306 49.553 33 49.553z" fill="#FFD983"/></g><path d="M25.686 26.15a3.413 3.413 0 100-6.827 3.413 3.413 0 000 6.826zm9.264 7.8a2.926 2.926 0 100-5.85 2.926 2.926 0 000 5.85zm4.389 11.702a3.413 3.413 0 100-6.826 3.413 3.413 0 000 6.826zM36.9 21.273a1.95 1.95 0 100-3.9 1.95 1.95 0 000 3.9zM18.373 32.975a.975.975 0 100-1.95.975.975 0 000 1.95zm26.329-8.776a.975.975 0 100-1.95.975.975 0 000 1.95zM30.075 45.652a.975.975 0 100-1.95.975.975 0 000 1.95zm16.577-10.727a1.95 1.95 0 100-3.9 1.95 1.95 0 000 3.9zm-21.453 3.901a1.95 1.95 0 100-3.9 1.95 1.95 0 000 3.9z" fill="#FFCC4D"/><defs><filter id="filter0_d" x=".447" y=".447" width="65.106" height="65.106" filterUnits="userSpaceOnUse" color-interpolation-filters="sRGB"><feFlood flood-opacity="0" result="BackgroundImageFix"/><feColorMatrix in="SourceAlpha" values="0 0 0 0 0 0 0 0 0 0 0 0 0 0 0 0 0 0 127 0"/><feOffset dy="1"/><feGaussianBlur stdDeviation="7.5"/><feColorMatrix values="0 0 0 0 1 0 0 0 0 0.89302 0 0 0 0 0.513726 0 0 0 1 0"/><feBlend in2="BackgroundImageFix" result="effect1_dropShadow"/><feBlend in="SourceGraphic" in2="effect1_dropShadow" result="shape"/></filter></defs></svg>