<svg width="142" height="48" viewBox="0 0 142 48" fill="none" xmlns="http://www.w3.org/2000/svg">
<g clip-path="url(#clip0_4248_6485)">
<path d="M24.6993 41.4737C23.3593 42.3158 21.9162 42.9474 20.37 43.4737C19.1331 43.7895 17.8962 44 16.6593 44C14.2885 44.2105 12.0208 43.3684 10.2685 41.7895C8.72235 40.2105 7.89774 38 8.00081 35.7895C8.00081 34.4211 8.20697 33.1579 8.92851 32C9.54697 30.9474 10.2685 30.1053 11.2993 29.4737C12.227 28.8421 13.3608 28.3158 14.4947 28C15.5254 27.6842 16.6593 27.5789 17.7931 27.5789L24.6993 27.4737V26.3158C24.8024 25.2632 24.39 24.2105 23.5654 23.4737C22.4316 22.7368 21.0916 22.4211 19.7516 22.5263C18.6177 22.5263 17.587 22.7368 16.5562 22.9474C15.1131 23.2632 13.7731 24 12.7424 24.9474L9.65004 19.8947C11.2993 18.5263 13.2577 17.5789 15.3193 16.9474C17.0716 16.5263 18.8239 16.3158 20.5762 16.2105C24.39 16.2105 27.1731 17.0526 29.0285 18.7368C30.7808 20.5263 31.7085 23.1579 31.8116 26.6316L31.9147 43.5789H25.627L25.1116 41.3684L24.6993 41.4737ZM24.6993 32.5263H18.927C18.5147 32.5263 18.1024 32.5263 17.69 32.6316C17.2777 32.7368 16.8654 32.8421 16.5562 33.0526C16.247 33.2632 15.9377 33.5789 15.7316 33.8947C15.5254 34.3158 15.4224 34.7368 15.4224 35.2632C15.4224 36 15.7316 36.6316 16.247 37.0526C16.9685 37.5789 17.7931 37.7895 18.6177 37.6842C19.7516 37.6842 20.9885 37.4737 22.0193 36.9474L24.8024 35.6842L24.6993 32.5263ZM47.067 43.7895C46.0362 43.7895 45.1085 43.7895 44.0777 43.6842C43.047 43.5789 42.1193 43.4737 41.0885 43.1579C38.9239 42.6316 36.8624 41.4737 35.11 40L38.8208 34.9474C39.9547 36 41.3977 36.7368 42.8408 37.2632C44.1808 37.6842 45.5208 37.8947 46.8608 37.8947C47.8916 37.8947 48.9224 37.6842 49.85 37.1579C50.5716 36.8421 50.9839 36.1053 50.9839 35.2632C50.9839 34.6316 50.6747 34.1053 50.2624 33.6842C49.4377 33.1579 48.6131 32.8421 47.6854 32.7368C46.4485 32.5263 45.2116 32.3158 43.8716 32C42.6347 31.7895 41.3977 31.3684 40.2639 30.8421C39.2331 30.3158 38.3054 29.5789 37.5839 28.6316C36.8624 27.4737 36.45 26.2105 36.5531 24.8421C36.5531 23.5789 36.7593 22.2105 37.3777 21.0526C37.8931 20 38.7177 19.0526 39.6454 18.3158C40.5731 17.5789 41.707 17.0526 42.8408 16.6316C44.0777 16.2105 45.3147 16.1053 46.5516 16.1053C48.51 16.1053 50.4685 16.2105 52.3239 16.6316C54.1793 17.0526 55.9316 17.8947 57.4777 19.1579L54.2824 24.4211C53.0454 23.5789 51.7054 22.9474 50.2624 22.6316C49.0254 22.4211 47.8916 22.2105 46.6547 22.2105C45.727 22.1053 44.7993 22.4211 44.0777 22.9474C43.5624 23.3684 43.2531 24 43.2531 24.6316C43.2531 25.3684 43.6654 25.8947 44.387 26.1053C45.3147 26.4211 46.2424 26.7368 47.17 26.8421L50.6747 27.4737C51.9116 27.6842 53.1485 28.1053 54.2824 28.6316C55.4162 29.1579 56.3439 30 57.0654 30.9474C57.89 32.1053 58.1993 33.5789 58.1993 35.0526C58.1993 36.3158 57.9931 37.6842 57.3747 38.8421C56.7562 39.8947 55.9316 40.8421 55.0039 41.5789C53.9731 42.3158 52.7362 42.9474 51.4993 43.2632C50.0562 43.5789 48.6131 43.7895 47.067 43.7895ZM78.9177 43.2632L78.8147 26.5263C78.9177 25.3684 78.5054 24.2105 77.6808 23.3684C76.9593 22.7368 76.1347 22.5263 75.207 22.5263C74.2793 22.5263 73.3516 22.7368 72.4239 23.1579C71.187 23.6842 70.0531 24.3158 68.9193 25.0526L69.0224 43.4737L62.1162 43.5789L61.91 4H68.8162L68.9193 18.6316C70.4654 17.5789 72.1147 16.7368 73.867 16.3158C75.0008 16 76.1347 15.8947 77.2685 15.7895C80.2577 15.7895 82.4224 16.6316 83.7624 18.4211C85.2054 20.5263 85.8239 23.0526 85.7208 25.5789L85.8239 43.2632H78.9177ZM113.861 33.2632C113.861 34.8421 113.552 36.3158 112.933 37.6842C112.315 38.9474 111.387 40 110.356 40.8421C109.222 41.6842 107.985 42.3158 106.645 42.7368C105.202 43.1579 103.759 43.3684 102.316 43.3684C100.873 43.3684 99.327 43.1579 97.8839 42.8421C96.5439 42.5263 95.2039 41.8947 94.07 41.0526C91.6993 39.3684 90.3593 36.5263 90.4624 33.5789L90.3593 25.6842C90.2562 24.2105 90.6685 22.6316 91.287 21.2632C91.9054 20 92.8331 18.9474 93.8639 18.1053C94.9977 17.2632 96.2347 16.6316 97.5747 16.2105C99.0177 15.7895 100.461 15.5789 102.007 15.5789C103.553 15.5789 105.099 15.7895 106.542 16.2105C107.882 16.6316 109.222 17.2632 110.253 18.1053C111.284 18.9474 112.212 20 112.83 21.2632C113.449 22.6316 113.758 24.1053 113.758 25.6842L113.861 33.2632ZM106.955 26.6316C106.955 25.8947 106.852 25.1579 106.542 24.4211C106.027 23.2632 104.996 22.5263 103.862 22.2105C103.347 22 102.729 22 102.11 22C101.492 22 100.976 22.1053 100.358 22.2105C99.7393 22.4211 99.2239 22.6316 98.8116 23.0526C98.3993 23.4737 97.987 24 97.7808 24.5263C97.4716 25.2632 97.3685 26 97.3685 26.7368V32.1053C97.3685 32.8421 97.4716 33.5789 97.7808 34.3158C97.987 34.8421 98.3993 35.3684 98.9147 35.7895C99.43 36.2105 99.9454 36.4211 100.461 36.6316C101.079 36.8421 101.698 36.8421 102.316 36.8421C102.935 36.8421 103.45 36.7368 104.069 36.5263C105.202 36.2105 106.233 35.3684 106.749 34.2105C107.058 33.4737 107.161 32.7368 107.161 32L106.955 26.6316ZM142.001 33.0526C142.001 34.6316 141.692 36.1053 141.073 37.4737C140.455 38.7368 139.527 39.7895 138.496 40.6316C137.362 41.4737 136.125 42.1053 134.785 42.5263C131.899 43.3684 128.91 43.3684 126.127 42.6316C124.787 42.2105 123.447 41.6842 122.313 40.8421C119.942 39.1579 118.602 36.3158 118.705 33.3684L118.602 25.4737C118.499 23.8947 118.912 22.4211 119.53 21.0526C120.149 19.7895 121.076 18.7368 122.107 17.8947C123.241 17.0526 124.478 16.4211 125.921 16C127.364 15.5789 128.807 15.3684 130.25 15.3684C131.796 15.3684 133.342 15.5789 134.785 16C136.125 16.4211 137.362 17.0526 138.496 17.8947C139.527 18.7368 140.455 19.7895 141.073 21.0526C141.692 22.4211 142.104 23.8947 142.001 25.4737V33.0526ZM135.095 26.4211C135.095 25.6842 134.992 24.9474 134.682 24.2105C134.373 23.6842 134.064 23.1579 133.549 22.7368C133.136 22.3158 132.518 22.1053 132.002 21.8947C131.487 21.6842 130.869 21.6842 130.353 21.6842C129.735 21.6842 129.116 21.7895 128.601 21.8947C127.982 22.1053 127.467 22.3158 127.055 22.7368C126.539 23.1579 126.23 23.6842 125.921 24.2105C125.612 24.9474 125.509 25.6842 125.509 26.4211V31.7895C125.509 32.5263 125.612 33.3684 125.921 34C126.127 34.5263 126.539 35.0526 127.055 35.4737C127.57 35.8947 128.085 36.1053 128.601 36.3158C129.219 36.5263 129.838 36.5263 130.456 36.5263C131.075 36.5263 131.59 36.4211 132.105 36.3158C133.239 36 134.27 35.1579 134.785 34C135.095 33.2632 135.198 32.5263 135.198 31.7895V26.4211H135.095Z" fill="white"/>
</g>
<g clip-path="url(#clip1_4248_6485)">
<path d="M26.0671 20.9347C23.521 21.0265 20.4146 20.7156 16.6446 21.7947C12.8769 22.8758 10.0668 23.7116 8.56269 19.9789C7.61186 17.6242 9.24567 15.6177 12.4491 14.2116C13.7421 13.6443 15.2931 13.1727 17.0329 12.818C17.8149 12.6569 18.6376 12.5181 19.4907 12.4068C28.3613 11.24 31.4246 11.8194 32.2609 16.1336C33.0973 20.4477 28.613 20.8407 26.0671 20.9347Z" fill="white"/>
<path opacity="0.27" d="M26.0671 20.9347C23.521 21.0265 20.4146 20.7156 16.6446 21.7947C12.8769 22.8758 10.0668 23.7116 8.56269 19.9789C7.61186 17.6242 9.24567 15.6177 12.4491 14.2116C12.4609 15.3531 10.8824 17.1311 9.97964 17.8794C8.91072 18.7692 8.45819 19.3511 9.97574 21.1009C11.4935 22.8529 14.1034 20.7392 17.6613 19.4248C21.219 18.1082 23.6564 19.2566 25.5819 18.4424C27.5053 17.6283 27.0618 14.7279 25.3675 13.4411C23.6753 12.1542 17.1308 13.371 17.1308 13.371C17.1308 13.371 17.0948 13.1568 17.0329 12.818C17.8149 12.6569 18.6376 12.5181 19.4907 12.4068C28.3613 11.24 31.4246 11.8194 32.2609 16.1336C33.0973 20.4477 28.613 20.8407 26.0671 20.9347Z" fill="#725858"/>
<path d="M29.1863 12.306C22.4917 12.2514 17.8095 13.0619 14.6532 13.9991C13.9506 14.207 13.326 14.4209 12.7702 14.6353C10.0489 15.6742 9.00197 16.6675 9.00197 16.6675C9.00197 16.6675 10.2445 5.55455 11.4823 4.72525C12.72 3.89595 15.4711 2.41117 18.4094 1.56413C21.3476 0.717085 20.653 0.255072 23.2304 2.77919C25.8099 5.30311 29.1863 12.306 29.1863 12.306Z" fill="#D50D00"/>
<path opacity="0.24" d="M23.2304 2.77919C20.653 0.255072 21.3476 0.717085 18.4094 1.56413C15.4711 2.41117 12.72 3.89595 11.4823 4.72525C10.2445 5.55455 9.00197 16.6675 9.00197 16.6675C9.00197 16.6675 10.0489 15.6742 12.7702 14.6353C13.326 14.4209 13.9506 14.207 14.6532 13.9991C17.8095 13.0619 22.4917 12.2514 29.1863 12.306C29.1863 12.306 25.8099 5.30311 23.2304 2.77919ZM24.7697 11.1136C23.3894 11.1507 16.362 12.2097 14.628 12.7533C14.8683 10.7806 16.8726 11.2096 18.3833 9.81197C20.107 8.2171 19.7507 5.77164 21.101 5.93305C22.4493 6.09464 26.1671 11.0751 24.7697 11.1136Z" fill="#8D0300"/>
<path d="M20.903 0.874417C20.903 0.874417 20.9832 4.02403 18.9689 7.213C16.9567 10.4018 14.4676 11.1449 14.4676 11.1449C13.585 12.2702 7.80162 19.5205 6.75609 19.5476C5.71055 19.5747 4.33112 20.2851 5.50614 15.0072C5.67768 14.239 5.87217 13.5119 6.0875 12.826C6.09064 12.8128 6.09222 12.8062 6.09222 12.8062C7.34384 8.79539 9.28392 6.18315 11.4822 4.72528C13.3917 3.45842 15.9938 2.43426 17.9792 1.76323L17.9813 1.76305C19.6636 1.19389 20.903 0.874417 20.903 0.874417Z" fill="#D90D00"/>
<path opacity="0.47" d="M20.903 0.874417C20.903 0.874417 20.9832 4.02403 18.9689 7.213C16.9567 10.4018 14.4676 11.1449 14.4676 11.1449C13.585 12.2702 7.80162 19.5205 6.75609 19.5476C5.71055 19.5747 4.33112 20.2851 5.50614 15.0072C5.67768 14.239 5.87217 13.5119 6.0875 12.826C6.02843 13.0851 5.43958 15.7209 5.96695 16.288C6.52276 16.8848 7.10737 16.386 7.65274 17.2075C8.20025 18.0289 13.0052 11.6453 13.9694 10.1988C14.886 8.82308 15.6891 7.37988 16.1099 5.28162C15.972 5.96721 16.3169 7.81548 15.6913 8.9763C14.9064 10.4308 17.3267 8.04331 18.2898 5.30794C19.2532 2.57471 18.7851 1.77653 17.9813 1.76305C19.6636 1.19389 20.903 0.874417 20.903 0.874417Z" fill="#8D0300"/>
<path d="M4.05928 23.911C2.4023 23.3203 1.68481 22.2535 1.61621 21.1513C1.51562 19.5614 2.77511 17.8996 4.52921 17.5113L4.53134 17.5112C5.12659 17.3794 5.77997 17.3953 6.45502 17.6094C10.4966 18.8928 8.92786 25.6447 4.05928 23.911Z" fill="white"/>
<path opacity="0.14" d="M8.30562 8.69605C9.65306 6.78556 11.6962 4.95614 12.7745 4.86165C13.8529 4.76716 12.4739 6.46523 10.6596 8.13044C8.84524 9.79566 8.95175 12.9021 7.81773 13.3436C6.6837 13.7851 7.25882 10.1821 8.30757 8.69373L8.30562 8.69605Z" fill="#FFFF64"/>
<path opacity="0.27" d="M4.05928 23.911C2.4023 23.3203 1.68481 22.2535 1.61621 21.1513C2.49845 23.5335 5.98518 23.0278 6.42877 20.7232C6.86624 18.447 4.59375 17.5358 4.53134 17.5112C5.12659 17.3794 5.77997 17.3953 6.45502 17.6094C10.4966 18.8928 8.92786 25.6447 4.05928 23.911Z" fill="#725858"/>
</g>
<defs>
<clipPath id="clip0_4248_6485">
<rect width="134" height="44" fill="white" transform="translate(8 4)"/>
</clipPath>
<clipPath id="clip1_4248_6485">
<rect width="31" height="21.9049" fill="white" transform="translate(0 2.70599) rotate(-5.0077)"/>
</clipPath>
</defs>
</svg>
