<svg width="46" height="56" viewBox="0 0 46 56" fill="none" xmlns="http://www.w3.org/2000/svg"><g filter="url(#filter0_d)"><mask id="a" fill="#fff"><path fill-rule="evenodd" clip-rule="evenodd" d="M26.77 25.445C32.11 23.829 36 18.869 36 13c0-7.18-5.82-13-13-13S10 5.82 10 13c0 5.869 3.889 10.83 9.23 12.445L23 36l3.77-10.555z"/></mask><path fill-rule="evenodd" clip-rule="evenodd" d="M26.77 25.445C32.11 23.829 36 18.869 36 13c0-7.18-5.82-13-13-13S10 5.82 10 13c0 5.869 3.889 10.83 9.23 12.445L23 36l3.77-10.555z" fill="#fff"/><path d="M26.77 25.445l-.58-1.914-.965.292-.339.95 1.884.672zm-7.54 0l1.884-.673-.34-.95-.965-.291-.579 1.914zM23 36l-1.884.673L23 41.946l1.884-5.273L23 36zm11-23c0 4.963-3.288 9.163-7.81 10.53l1.159 3.83C33.51 25.495 38 19.774 38 13h-4zM23 2c6.075 0 11 4.925 11 11h4c0-8.284-6.716-15-15-15v4zM12 13c0-6.075 4.925-11 11-11v-4C14.716-2 8 4.716 8 13h4zm7.81 10.53C15.287 22.164 12 17.964 12 13H8c0 6.775 4.49 12.495 10.651 14.36l1.159-3.83zm5.074 11.797l-3.77-10.555-3.767 1.346 3.77 10.555 3.767-1.346zm.002-10.555l-3.77 10.555 3.768 1.346 3.77-10.555-3.768-1.346z" fill="#EC49DC" mask="url(#a)"/></g><path fill-rule="evenodd" clip-rule="evenodd" d="M27.785 7.797L30 11.935 16 12.1l2.152-4.258 2.543-.012L22.448 6l.885.041L25.19 7.81l2.595-.012zm-4.905-.614L19.4 10.98h7.332L22.88 7.183zm.065 3.287c-1.345 0-1.285-1.908-.021-1.908s1.252 1.908.021 1.908zm-5.932 2.403l12.064.136-.063 4.586.876-.017L29.807 19h-13.61v-1.159l.813-.016.003-4.952zm10.715 3.558v-1.843l-2.208-.012.051 1.938 2.157-.083zm-3.625 1.258l.091-3.12-2.423-.013.096 3.175 2.236-.042zm-3.626-1.258v-1.883l-1.92-.01.052 1.976 1.868-.083z" fill="#EC49DC"/><defs><filter id="filter0_d" x="0" y="0" width="46" height="56" filterUnits="userSpaceOnUse" color-interpolation-filters="sRGB"><feFlood flood-opacity="0" result="BackgroundImageFix"/><feColorMatrix in="SourceAlpha" values="0 0 0 0 0 0 0 0 0 0 0 0 0 0 0 0 0 0 127 0"/><feOffset dy="10"/><feGaussianBlur stdDeviation="5"/><feColorMatrix values="0 0 0 0 0 0 0 0 0 0 0 0 0 0 0 0 0 0 0.15 0"/><feBlend in2="BackgroundImageFix" result="effect1_dropShadow"/><feBlend in="SourceGraphic" in2="effect1_dropShadow" result="shape"/></filter></defs></svg>