<svg width="50" height="50" viewBox="0 0 50 50" fill="none" xmlns="http://www.w3.org/2000/svg"><path d="M14.573 25c0 5.752 4.68 10.431 10.431 10.431 5.752 0 10.431-4.679 10.431-10.431 0-5.752-4.679-10.431-10.43-10.431-5.753 0-10.432 4.679-10.432 10.431z" fill="#FFCB45"/><path fill-rule="evenodd" clip-rule="evenodd" d="M28.43 15.146l-3.574 9.95V14.57a10.423 10.423 0 013.574.576z" fill="#FF9315"/><path d="M22.917 41.667a2.083 2.083 0 114.166 0v2.083a2.083 2.083 0 11-4.166 0v-2.083zm0-35.417a2.083 2.083 0 114.166 0v2.083a2.083 2.083 0 11-4.166 0V6.25zM4.167 25c0-1.15.932-2.083 2.083-2.083h2.083a2.083 2.083 0 110 4.166H6.25A2.083 2.083 0 014.167 25zm35.416 0c0-1.15.933-2.083 2.084-2.083h2.083a2.083 2.083 0 110 4.166h-2.083A2.083 2.083 0 0139.583 25zM13.217 39.731a2.083 2.083 0 01-2.946-2.946l1.473-1.472a2.083 2.083 0 112.946 2.945l-1.473 1.473zM35.31 14.69a2.083 2.083 0 010-2.946l1.475-1.475a2.083 2.083 0 012.946 2.946l-1.475 1.475a2.083 2.083 0 01-2.946 0zm-20.62.001a2.083 2.083 0 01-2.946 0l-1.473-1.473a2.084 2.084 0 112.948-2.946l1.472 1.474a2.083 2.083 0 010 2.945zm25.041 22.094a2.083 2.083 0 01-2.946 2.946l-1.475-1.475a2.083 2.083 0 012.946-2.946l1.475 1.475z" fill="#FFCB45"/></svg>