<svg xmlns="http://www.w3.org/2000/svg" width="135" height="80" viewBox="0 0 135 80" fill="none">
	<path d="M148.475 -14.2686L100.278 33.9279C99.7041 32.922 98.8418 32.0707 97.747 31.5112C95.8517 30.5458 94.5958 28.6621 94.43 26.5417C94.193 23.545 91.8121 21.1642 88.8154 20.9271C87.2685 20.8062 85.8476 20.1049 84.8174 18.9985L133.28 -29.4634L148.475 -14.2686ZM49.2256 18.1104C48.2013 19.7245 46.4696 20.7764 44.5418 20.9271C41.5451 21.1642 39.1642 23.545 38.9272 26.5417C38.7613 28.6621 37.5055 30.5458 35.6102 31.5112C34.8707 31.8891 34.2372 32.4002 33.7269 33.0018L-13 -13.7251L2.19541 -28.9198L49.2256 18.1104Z" fill="#FF5E7D"/>
	<path d="M63.3068 18.7297C65.2479 17.0702 68.1094 17.0702 70.0505 18.7297C71.4234 19.9013 73.3042 20.2782 75.0241 19.72C77.4529 18.9306 80.093 20.0269 81.2547 22.2999C82.0744 23.9091 83.6738 24.9752 85.4741 25.116C88.0185 25.3172 90.0398 27.3387 90.2411 29.883C90.3819 31.6833 91.4481 33.2827 93.0572 34.1024C95.3302 35.2641 96.4265 37.9042 95.6371 40.3331C95.0789 42.0478 95.4559 43.9337 96.6274 45.3066C98.2869 47.2477 98.2869 50.1092 96.6274 52.0503C95.4558 53.4232 95.0789 55.3041 95.6371 57.0238C96.4266 59.4528 95.3302 62.0928 93.0572 63.2545C91.448 64.0742 90.3819 65.6736 90.2411 67.4739C90.0399 70.0183 88.0185 72.0397 85.4741 72.2409C83.6738 72.3817 82.0744 73.4478 81.2547 75.057C80.093 77.33 77.453 78.4264 75.0241 77.6369C73.3093 77.0787 71.4234 77.4556 70.0505 78.6272C68.1094 80.2867 65.2479 80.2867 63.3068 78.6272C61.9339 77.4557 60.053 77.0787 58.3333 77.6369C55.9044 78.4263 53.2643 77.33 52.1027 75.057C51.2829 73.4479 49.6835 72.3817 47.8833 72.2409C45.3389 72.0396 43.3174 70.0182 43.1162 67.4739C42.9754 65.6736 41.9093 64.0742 40.3001 63.2545C38.0271 62.0928 36.9308 59.4527 37.7203 57.0238C38.2784 55.3091 37.9015 53.4232 36.7299 52.0503C35.0704 50.1092 35.0704 47.2477 36.7299 45.3066C37.9015 43.9337 38.2784 42.0528 37.7203 40.3331C36.9308 37.9042 38.0271 35.2641 40.3001 34.1024C41.9093 33.2827 42.9754 31.6833 43.1162 29.883C43.3175 27.3387 45.3389 25.3173 47.8833 25.116C49.6836 24.9752 51.283 23.9091 52.1027 22.2999C53.2643 20.0269 55.9044 18.9306 58.3333 19.72C60.048 20.2782 61.9339 19.9013 63.3068 18.7297ZM66.678 20.378C51.0483 20.3781 38.3776 33.0487 38.3776 48.6785C38.3776 64.3082 51.0482 76.9788 66.678 76.9789C82.3078 76.9789 94.9784 64.3082 94.9784 48.6785C94.9784 33.0487 82.3077 20.378 66.678 20.378ZM66.678 21.6439C81.6087 21.6439 93.7125 33.7477 93.7125 48.6785C93.7125 63.6092 81.6087 75.713 66.678 75.713C51.7473 75.713 39.6435 63.6092 39.6435 48.6785C39.6435 33.7477 51.7473 21.644 66.678 21.6439ZM66.6665 32.842C57.9289 32.842 50.8457 39.9253 50.8456 48.6629C50.8456 57.4006 57.9288 64.4838 66.6665 64.4838C75.4041 64.4837 82.4874 57.4005 82.4874 48.6629C82.4872 39.9254 75.404 32.8421 66.6665 32.842Z" fill="#FF5E7D"/>
	<path d="M80.5425 48.6786C80.5425 56.3354 74.3354 62.5424 66.6786 62.5424C59.0218 62.5424 52.8147 56.3354 52.8147 48.6786C52.8147 41.0218 59.0218 34.8147 66.6786 34.8147C74.3354 34.8147 80.5425 41.0218 80.5425 48.6786Z" fill="#FF5E7D"/>
	<path d="M86.8403 61.2016C86.6394 61.5533 86.4567 61.8731 86.2923 62.1611C86.1291 62.4468 85.9747 62.7172 85.829 62.9722C85.574 62.8265 85.3268 62.6853 85.0872 62.5485C84.8476 62.4116 84.5816 62.2597 84.2893 62.0927L82.7 61.185C82.3989 61.013 82.1263 60.8574 81.8823 60.718C81.6384 60.5787 81.3867 60.4349 81.1273 60.2868L81.6471 59.3768C81.9064 59.5249 82.1581 59.6687 82.4021 59.808C82.6461 59.9474 82.9187 60.103 83.2198 60.275L84.6606 61.098C84.8299 61.1946 84.9926 61.2876 85.1486 61.3767C85.3025 61.4646 85.4585 61.5537 85.6168 61.6441L86.0123 60.9517C86.1378 60.7319 86.2127 60.5371 86.2368 60.3672C86.2622 60.1951 86.2344 60.0422 86.1533 59.9085C86.0736 59.7726 85.9392 59.6506 85.7501 59.5426C85.5941 59.4535 85.455 59.4061 85.3328 59.4005C85.2119 59.3927 85.1036 59.4139 85.0079 59.4641C84.9121 59.5144 84.8285 59.5818 84.7569 59.6662C84.6831 59.7495 84.6199 59.8372 84.5672 59.9295L84.021 60.8857L83.2825 60.4639C83.3578 60.332 83.4432 60.1825 83.5386 60.0155C83.634 59.8484 83.742 59.6594 83.8625 59.4484C84.0759 59.0747 84.3008 58.7906 84.5372 58.5962C84.7736 58.4018 85.0342 58.3029 85.3189 58.2994C85.6037 58.2959 85.9241 58.3958 86.2802 58.5992C86.5836 58.7724 86.8204 58.9806 86.9906 59.2235C87.1586 59.4653 87.237 59.7491 87.2258 60.075C87.2123 60.3996 87.0838 60.7752 86.8403 61.2016ZM88.2094 58.8046C87.9544 58.659 87.7071 58.5177 87.4675 58.3809C87.2279 58.244 86.9619 58.0921 86.6696 57.9252L85.0804 57.0175C84.7792 56.8455 84.5067 56.6898 84.2627 56.5504C84.0187 56.4111 83.767 56.2673 83.5076 56.1192L84.0462 55.1762C84.3056 55.3243 84.5573 55.4681 84.8013 55.6075C85.0453 55.7468 85.3178 55.9025 85.619 56.0745L87.2082 56.9822C87.5005 57.1491 87.7665 57.3011 88.0061 57.4379C88.2457 57.5747 88.493 57.716 88.7479 57.8616L88.2094 58.8046Z" fill="white"/>
	<path d="M83.1243 65.9687C82.9331 65.7459 82.7476 65.5298 82.5679 65.3204C82.3882 65.111 82.1887 64.8786 81.9695 64.6231L80.7775 63.2343C80.5516 62.9712 80.3472 62.733 80.1642 62.5198C79.9812 62.3065 79.7924 62.0866 79.5979 61.8599L80.4076 61.165C80.6021 61.3917 80.7909 61.6116 80.9739 61.8249C81.1569 62.0381 81.3613 62.2763 81.5872 62.5394L82.7791 63.9282C82.9984 64.1837 83.1979 64.4161 83.3776 64.6255C83.5573 64.8349 83.7427 65.051 83.934 65.2738L83.1243 65.9687ZM80.5052 68.2166C80.314 67.9938 80.1285 67.7777 79.9488 67.5683C79.7691 67.3589 79.5696 67.1265 79.3503 66.871L78.1584 65.4822C77.9325 65.2191 77.7281 64.9809 77.5451 64.7677C77.3621 64.5545 77.1733 64.3345 76.9788 64.1079L77.7884 63.4129C77.983 63.6396 78.1718 63.8596 78.3548 64.0728C78.5378 64.286 78.7422 64.5242 78.968 64.7873L80.16 66.1761C80.3793 66.4316 80.5788 66.664 80.7585 66.8734C80.9382 67.0828 81.1236 67.2989 81.3149 67.5217L80.5052 68.2166ZM79.5899 65.9899L79.0088 65.3128L81.308 63.3394L81.8892 64.0165L79.5899 65.9899Z" fill="white"/>
	<path d="M75.2829 71.0595C75.1581 70.7937 75.0371 70.536 74.9198 70.2862C74.8025 70.0365 74.6724 69.7592 74.5293 69.4545L73.7498 67.7944C73.6034 67.4828 73.4706 67.1998 73.3511 66.9455C73.2317 66.6911 73.1085 66.4288 72.9816 66.1584L76.1642 64.6639L76.5402 65.4648C76.3249 65.5659 76.0923 65.6751 75.8425 65.7924C75.5951 65.9086 75.3029 66.0458 74.9661 66.2039L73.7838 66.7591L73.9927 65.864C74.1196 66.1344 74.2434 66.3979 74.3639 66.6545C74.4833 66.9088 74.6162 67.1918 74.7625 67.5034L75.4 68.861C75.5431 69.1658 75.6733 69.443 75.7905 69.6928C75.9078 69.9425 76.0294 70.2015 76.1553 70.4695L75.395 70.0295L76.5876 69.4695C76.8694 69.3372 77.1364 69.2119 77.3884 69.0935C77.6405 68.9752 77.8822 68.8616 78.1136 68.753L78.4896 69.5538L75.2829 71.0595ZM75.0237 68.6225L74.667 67.8629L75.5813 67.4336C75.8883 67.2894 76.1518 67.1657 76.3718 67.0624C76.5917 66.9591 76.8037 66.8596 77.0076 66.7638L77.3643 67.5234C77.1489 67.6245 76.9312 67.7268 76.7112 67.83C76.4913 67.9333 76.2324 68.0549 75.9345 68.1948L75.0237 68.6225Z" fill="white"/>
	<path d="M69.2254 72.5025C69.1726 72.2136 69.1214 71.9335 69.0717 71.6621C69.0221 71.3906 68.967 71.0894 68.9064 70.7582L68.5765 68.9541C68.5145 68.6155 68.4583 68.308 68.4077 68.0316C68.3572 67.7552 68.305 67.4701 68.2513 67.1762C68.463 67.1375 68.7431 67.0863 69.0917 67.0225C69.4428 66.9583 69.8462 66.8846 70.3019 66.8012C70.7252 66.7238 71.0873 66.7129 71.3883 66.7685C71.6892 66.8241 71.9325 66.9585 72.1182 67.1715C72.3034 67.3821 72.4322 67.6854 72.5046 68.0813C72.567 68.4225 72.5601 68.7364 72.4838 69.0231C72.4071 69.3073 72.243 69.5496 71.9915 69.7501C71.7394 69.948 71.3781 70.09 70.9075 70.176C70.788 70.1979 70.6573 70.2218 70.5153 70.2478C70.3759 70.2733 70.2389 70.2983 70.1045 70.3229C69.9725 70.347 69.8592 70.3678 69.7646 70.3851L69.6136 69.5596L70.5287 69.3923C70.7777 69.3467 70.9762 69.2782 71.1242 69.1868C71.2721 69.0954 71.3714 68.9769 71.422 68.8313C71.4746 68.6827 71.4813 68.5014 71.4421 68.2872C71.4103 68.1129 71.3574 67.9785 71.2835 67.8839C71.2091 67.7868 71.1221 67.7191 71.0224 67.6808C70.9228 67.6424 70.8176 67.623 70.7068 67.6227C70.5961 67.6223 70.4885 67.6317 70.3839 67.6508L68.931 67.9166L69.3116 67.1483C69.3653 67.4421 69.4177 67.7285 69.4687 68.0074C69.5192 68.2838 69.5755 68.5913 69.6374 68.9299L69.9373 70.5696C69.9979 70.9008 70.053 71.2021 70.1026 71.4735C70.1522 71.745 70.2035 72.0251 70.2563 72.3139L69.2254 72.5025Z" fill="white"/>
	<path d="M63.4054 72.4281C63.4247 72.1351 63.4433 71.8509 63.4614 71.5756C63.4795 71.3003 63.4996 70.9946 63.5216 70.6587L63.6418 68.8287C63.6644 68.4851 63.6849 68.1732 63.7033 67.8928C63.7217 67.6124 63.7407 67.3232 63.7603 67.0252L67.2688 67.2556L67.2108 68.1384C66.9734 68.1228 66.717 68.106 66.4417 68.0879C66.1689 68.07 65.8468 68.0488 65.4755 68.0244L64.1721 67.9388L64.7877 67.2563C64.7682 67.5543 64.7491 67.8448 64.7305 68.1277C64.7121 68.4081 64.6916 68.72 64.669 69.0636L64.5707 70.5602C64.5487 70.8961 64.5286 71.2018 64.5105 71.4771C64.4924 71.7524 64.4737 72.0378 64.4543 72.3334L64.0014 71.5806L65.3161 71.667C65.6268 71.6874 65.9211 71.7067 66.199 71.725C66.4768 71.7432 66.7433 71.7607 66.9984 71.7775L66.9404 72.6603L63.4054 72.4281ZM64.3567 70.1694L64.4117 69.3321L65.4195 69.3983C65.758 69.4205 66.0485 69.4396 66.2909 69.4555C66.5334 69.4714 66.7671 69.4868 66.9919 69.5015L66.9369 70.3389C66.6994 70.3233 66.4595 70.3075 66.217 70.2916C65.9745 70.2757 65.6891 70.2569 65.3607 70.2353L64.3567 70.1694Z" fill="white"/>
	<path d="M59.0437 71.3218C58.7915 71.2381 58.5572 71.1604 58.341 71.0887C58.1247 71.017 57.9289 70.952 57.7535 70.8939C57.5805 70.8365 57.4315 70.7871 57.3066 70.7457C57.399 70.4669 57.4887 70.1966 57.5755 69.9348C57.6624 69.6729 57.7588 69.3821 57.8648 69.0626L58.442 67.3218C58.5504 66.9951 58.6488 66.6983 58.7373 66.4316C58.8257 66.1649 58.9169 65.8898 59.011 65.6063C59.2945 65.7003 59.6116 65.8055 59.9624 65.9219C60.3132 66.0382 60.6676 66.1557 61.0256 66.2745C61.3596 66.3852 61.6311 66.5073 61.8403 66.6406C62.0502 66.7716 62.2061 66.9126 62.308 67.0638C62.4131 67.2133 62.4714 67.3713 62.4828 67.5378C62.4975 67.7027 62.4745 67.8764 62.414 68.059C62.3415 68.2777 62.2373 68.4551 62.1014 68.5914C61.9663 68.7253 61.8116 68.822 61.6372 68.8815C61.4635 68.9386 61.2811 68.9621 61.0897 68.952L61.0623 69.0349C61.2433 69.1403 61.3972 69.2673 61.5239 69.416C61.6514 69.5623 61.7329 69.7347 61.7685 69.9331C61.8072 70.13 61.7839 70.357 61.6987 70.6141C61.6285 70.8255 61.5296 71.0074 61.4017 71.1596C61.2771 71.3103 61.1119 71.4222 60.9063 71.4954C60.7007 71.5686 60.4458 71.5934 60.1416 71.5698C59.8374 71.5463 59.4714 71.4636 59.0437 71.3218ZM58.5582 70.2767L59.3944 70.5539C59.6418 70.636 59.8516 70.6749 60.0237 70.6707C60.199 70.6648 60.3402 70.6209 60.4474 70.5391C60.5553 70.4549 60.6348 70.3359 60.6858 70.1821C60.7655 69.9419 60.7383 69.7382 60.6044 69.5711C60.4729 69.4048 60.2497 69.2695 59.935 69.1651L58.7925 68.7862L59.0447 68.0257L60.1511 68.3927C60.3577 68.4612 60.5375 68.4861 60.6904 68.4675C60.8464 68.4472 60.9736 68.3934 61.072 68.306C61.1703 68.2186 61.2421 68.1064 61.2876 67.9695C61.3601 67.7508 61.3458 67.5647 61.2447 67.4112C61.1468 67.2561 60.9609 67.1331 60.687 67.0422L59.7355 66.7267C59.6766 66.9045 59.6168 67.0847 59.5562 67.2673C59.4957 67.4499 59.4279 67.6541 59.3531 67.88L58.924 69.1738C58.8531 69.3877 58.7885 69.5823 58.7303 69.7577C58.673 69.9307 58.6156 70.1037 58.5582 70.2767Z" fill="white"/>
	<path d="M52.7684 68.1222C52.3798 67.8431 52.0851 67.5396 51.8843 67.2116C51.6857 66.885 51.5688 66.5487 51.5338 66.2025C51.5008 65.8578 51.5363 65.5156 51.6401 65.1757C51.746 64.8372 51.9083 64.5159 52.1268 64.2116C52.4324 63.7859 52.7946 63.4617 53.2133 63.2388C53.6335 63.0139 54.0825 62.9203 54.5603 62.958C55.0416 62.9951 55.528 63.1901 56.0194 63.543C56.3936 63.8118 56.6795 64.1059 56.877 64.4253C57.0745 64.7448 57.1926 65.0774 57.2311 65.4229C57.2697 65.7685 57.2373 66.113 57.134 66.4564C57.0308 66.7999 56.8654 67.1299 56.638 67.4466C56.325 67.8824 55.9589 68.2101 55.5396 68.4294C55.1203 68.6487 54.6725 68.7385 54.1961 68.6988C53.7213 68.657 53.2454 68.4648 52.7684 68.1222ZM53.269 67.3925C53.4993 67.5579 53.7282 67.66 53.9559 67.6988C54.1851 67.7356 54.4076 67.7209 54.6234 67.6546C54.8428 67.5878 55.0464 67.48 55.2343 67.3313C55.4241 67.1841 55.5929 67.0076 55.7406 66.802C55.8985 66.582 56.0157 66.356 56.0919 66.1241C56.1681 65.8921 56.1996 65.6638 56.1863 65.4392C56.1766 65.2141 56.1155 65.0019 56.003 64.8027C55.894 64.6029 55.7306 64.4248 55.5126 64.2683C55.2885 64.1073 55.0616 64.0067 54.8319 63.9664C54.6021 63.9261 54.3773 63.9376 54.1573 64.0009C53.9394 64.0657 53.7337 64.1719 53.5403 64.3198C53.3484 64.4655 53.1771 64.6433 53.0265 64.853C52.8759 65.0627 52.7612 65.2811 52.6823 65.508C52.6035 65.735 52.5682 65.9621 52.5764 66.1893C52.5847 66.4165 52.6446 66.6325 52.7562 66.8373C52.8678 67.0421 53.0387 67.2271 53.269 67.3925Z" fill="white"/>
	<path d="M46.5538 61.7229C46.7871 61.5447 47.0134 61.3718 47.2327 61.2043C47.4519 61.0368 47.6953 60.8508 47.9628 60.6464L49.4201 59.533C49.6937 59.324 49.9421 59.1342 50.1654 58.9636C50.3887 58.7931 50.619 58.6171 50.8563 58.4358C50.987 58.6067 51.1599 58.833 51.375 59.1146C51.5917 59.3983 51.8407 59.7241 52.1219 60.0922C52.3831 60.4342 52.5573 60.7518 52.6445 61.0452C52.7317 61.3386 52.7225 61.6164 52.617 61.8786C52.5135 62.1392 52.3018 62.3917 51.982 62.6361C51.7064 62.8466 51.4236 62.983 51.1336 63.0453C50.8455 63.1061 50.5551 63.07 50.2623 62.9369C49.9715 62.8023 49.6809 62.5449 49.3904 62.1647C49.3166 62.0682 49.236 61.9626 49.1484 61.8479C49.0623 61.7353 48.9778 61.6246 48.8948 61.516C48.8133 61.4094 48.7434 61.3179 48.685 61.2415L49.3518 60.732L49.9166 61.4712C50.0703 61.6724 50.2214 61.8181 50.3701 61.9084C50.5187 61.9987 50.6694 62.0334 50.8221 62.0123C50.9784 61.9916 51.143 61.9152 51.316 61.7831C51.4568 61.6755 51.5525 61.5673 51.6032 61.4585C51.6559 61.3482 51.6767 61.2399 51.6656 61.1337C51.6545 61.0275 51.624 60.9249 51.574 60.8262C51.524 60.7274 51.4668 60.6357 51.4022 60.5512L50.5055 59.3775L51.3628 59.3676C51.1255 59.549 50.8942 59.7257 50.6689 59.8978C50.4456 60.0684 50.1972 60.2582 49.9236 60.4672L48.5991 61.4792C48.3315 61.6836 48.0881 61.8695 47.8689 62.037C47.6496 62.2045 47.4233 62.3774 47.19 62.5557L46.5538 61.7229Z" fill="white"/>
	<path d="M43.62 55.2255C43.8936 55.1189 44.159 55.0156 44.4161 54.9154C44.6732 54.8153 44.9586 54.7041 45.2723 54.5819L46.9777 53.9177C47.3008 53.7918 47.5933 53.6779 47.8552 53.5759C48.117 53.474 48.3871 53.3688 48.6654 53.2604L50.2957 57.446C50.0173 57.5544 49.7473 57.6596 49.4854 57.7615C49.2236 57.8635 48.9311 57.9774 48.608 58.1033L46.9026 58.7675C46.5889 58.8897 46.3035 59.0009 46.0464 59.101C45.7893 59.2012 45.5239 59.3045 45.2503 59.4111L44.8631 58.4169C45.1367 58.3103 45.402 58.207 45.6591 58.1068C45.9162 58.0067 46.2016 57.8955 46.5154 57.7733L48.0686 57.1684C48.3918 57.0425 48.6842 56.9286 48.9461 56.8266C49.2079 56.7246 49.478 56.6194 49.7563 56.511L49.1927 57.0728L48.1054 54.2812L48.9005 54.3138C48.6222 54.4222 48.3521 54.5274 48.0903 54.6294C47.8284 54.7314 47.536 54.8453 47.2128 54.9712L45.6596 55.5762C45.3459 55.6983 45.0604 55.8095 44.8033 55.9097C44.5462 56.0098 44.2809 56.1132 44.0073 56.2197L43.62 55.2255Z" fill="white"/>
	<path d="M83.595 41.6176C83.4576 41.2366 83.3327 40.8901 83.2202 40.5782C83.1085 40.2686 83.0029 39.9757 82.9033 39.6995C83.1795 39.5999 83.4474 39.5033 83.707 39.4097C83.9665 39.3161 84.2547 39.2122 84.5714 39.098L86.293 38.4771C86.6192 38.3595 86.9145 38.253 87.1788 38.1576C87.4432 38.0623 87.7158 37.964 87.9968 37.8627L88.3523 38.8485C88.0713 38.9498 87.7987 39.0482 87.5343 39.1435C87.27 39.2388 86.9748 39.3453 86.6485 39.4629L85.0876 40.0258C84.9043 40.0919 84.728 40.1555 84.559 40.2165C84.3923 40.2766 84.2232 40.3375 84.0518 40.3994L84.3223 41.1495C84.4081 41.3876 84.5079 41.5709 84.6215 41.6995C84.736 41.8304 84.8704 41.9084 85.0248 41.9335C85.18 41.9609 85.36 41.9377 85.5648 41.8639C85.7338 41.8029 85.8601 41.7278 85.9436 41.6385C86.028 41.5515 86.0821 41.4553 86.106 41.3498C86.1298 41.2444 86.1328 41.137 86.1149 41.0277C86.0994 40.9176 86.0737 40.8125 86.0376 40.7125L85.664 39.6767L86.4641 39.3882C86.5156 39.531 86.574 39.6929 86.6393 39.8739C86.7046 40.0549 86.7784 40.2597 86.8609 40.4883C87.0068 40.8931 87.0772 41.2485 87.0718 41.5545C87.0665 41.8605 86.9727 42.123 86.7907 42.3421C86.6087 42.5611 86.3248 42.7402 85.939 42.8793C85.6104 42.9978 85.2984 43.043 85.0031 43.015C84.7101 42.9861 84.4432 42.8617 84.2025 42.6417C83.9641 42.4209 83.7616 42.0795 83.595 41.6176ZM84.5314 44.2143C84.8077 44.1147 85.0756 44.0181 85.3351 43.9245C85.5947 43.8309 85.8828 43.727 86.1995 43.6128L87.9212 42.9919C88.2474 42.8743 88.5427 42.7678 88.807 42.6725C89.0713 42.5772 89.3439 42.4789 89.6249 42.3775L89.9933 43.3991C89.7123 43.5004 89.4397 43.5987 89.1754 43.6941C88.911 43.7894 88.6158 43.8959 88.2896 44.0135L86.5679 44.6344C86.2512 44.7486 85.9631 44.8525 85.7035 44.9461C85.444 45.0397 85.1761 45.1363 84.8998 45.2359L84.5314 44.2143Z" fill="white"/>
	<path d="M80.8816 36.8211C81.1127 36.64 81.3368 36.4643 81.554 36.2941C81.7712 36.1239 82.0122 35.935 82.2772 35.7273L83.5892 34.699C83.8621 34.4851 84.1091 34.2914 84.3303 34.1181C84.5514 33.9448 84.7796 33.766 85.0147 33.5817L84.6616 34.3746L84.233 33.8277C84.0534 33.5986 83.8933 33.3944 83.7528 33.2151C83.6138 33.0378 83.4819 32.8694 83.3569 32.71L84.0891 32.1362L86.8484 35.6566L86.1162 36.2305C85.9913 36.0711 85.8593 35.9027 85.7203 35.7254C85.5814 35.5481 85.4213 35.3439 85.2402 35.1128L84.8115 34.5659L85.6682 34.4155C85.4331 34.5998 85.205 34.7786 84.9838 34.9519C84.7627 35.1252 84.5156 35.3188 84.2427 35.5328L82.9307 36.5611C82.6657 36.7687 82.4247 36.9577 82.2075 37.1279C81.9903 37.2981 81.7662 37.4738 81.5351 37.6549L80.8816 36.8211Z" fill="white"/>
	<path d="M76.5769 32.9364C76.7547 32.7027 76.9271 32.4761 77.0942 32.2565C77.2613 32.0369 77.4468 31.7932 77.6507 31.5253L78.7613 30.0658C78.9697 29.7918 79.159 29.543 79.3292 29.3194C79.4993 29.0958 79.6749 28.8652 79.8557 28.6275L82.6538 30.7567L82.1181 31.4607C81.9287 31.3166 81.7242 31.161 81.5047 30.9939C81.2871 30.8284 81.0303 30.6329 80.7341 30.4076L79.6947 29.6166L80.5848 29.3874C80.4039 29.6251 80.2276 29.8568 80.056 30.0824C79.8858 30.306 79.6965 30.5548 79.488 30.8288L78.5798 32.0223C78.3759 32.2902 78.1904 32.534 78.0233 32.7536C77.8563 32.9731 77.683 33.2008 77.5037 33.4365L77.5417 32.5588L78.5902 33.3567C78.838 33.5452 79.0727 33.7238 79.2943 33.8925C79.5159 34.0611 79.7284 34.2228 79.9318 34.3776L79.3961 35.0817L76.5769 32.9364ZM78.6171 31.5783L79.1252 30.9105L79.929 31.5222C80.1989 31.7276 80.4306 31.9038 80.624 32.051C80.8173 32.1982 81.0037 32.34 81.183 32.4764L80.6748 33.1442C80.4855 33.0001 80.2941 32.8545 80.1007 32.7073C79.9073 32.5601 79.6797 32.3869 79.4178 32.1876L78.6171 31.5783Z" fill="white"/>
	<path d="M74.7733 32.0306C74.6898 31.7279 74.611 31.4437 74.537 31.1778C74.4654 30.9129 74.3941 30.6537 74.3233 30.4001L73.965 29.1153L73.635 28.9795L73.9557 28.2L74.2753 28.3315L75.2754 27.8069C75.5103 27.6818 75.7435 27.5574 75.975 27.4337C76.2089 27.311 76.4788 27.1674 76.7845 27.0031L77.9292 27.4741C77.591 27.6443 77.2593 27.8116 76.9343 27.9762C76.6116 28.1418 76.2861 28.3076 75.9577 28.4736L74.7218 29.1024L74.8819 28.6632L75.3226 30.2365C75.3903 30.4778 75.4627 30.7376 75.5399 31.0157C75.6194 31.2948 75.6966 31.5661 75.7716 31.8296C75.8466 32.0931 75.9118 32.3238 75.9672 32.5218L74.7733 32.0306ZM71.8307 30.8197C71.9425 30.5482 72.0509 30.2848 72.1558 30.0297C72.2608 29.7745 72.3774 29.4913 72.5055 29.1799L73.2019 27.4874C73.3339 27.1667 73.4534 26.8765 73.5603 26.6166C73.6672 26.3568 73.7775 26.0887 73.8912 25.8125L74.8743 26.2171C74.7607 26.4933 74.6504 26.7613 74.5435 27.0212C74.4365 27.281 74.3171 27.5713 74.1851 27.892L73.4887 29.5845C73.3606 29.8958 73.244 30.1791 73.139 30.4342C73.034 30.6894 72.9257 30.9528 72.8139 31.2243L71.8307 30.8197Z" fill="white"/>
	<path d="M69.6651 30.4381C69.6936 30.1459 69.7211 29.8624 69.7478 29.5878C69.7746 29.3132 69.8042 29.0083 69.8368 28.6732L70.0139 26.8516C70.0475 26.5065 70.0779 26.1941 70.1051 25.9144C70.1323 25.6347 70.1603 25.3463 70.1893 25.049L71.2512 25.1522C71.2223 25.4495 71.1942 25.738 71.167 26.0177C71.1398 26.2973 71.1095 26.6098 71.0759 26.9549L70.8987 28.7765C70.8662 29.1116 70.8365 29.4164 70.8098 29.6911C70.7831 29.9657 70.7555 30.2491 70.7271 30.5414L69.6651 30.4381ZM66.2299 30.104C66.2583 29.8118 66.2858 29.5283 66.3125 29.2537C66.3393 28.9791 66.3689 28.6742 66.4015 28.3391L66.5786 26.5176C66.6122 26.1724 66.6426 25.86 66.6698 25.5803C66.697 25.3006 66.725 25.0122 66.754 24.7149L67.8159 24.8181C67.787 25.1154 67.7589 25.4039 67.7317 25.6836C67.7046 25.9632 67.6742 26.2757 67.6406 26.6208L67.4634 28.4424C67.4309 28.7775 67.4012 29.0824 67.3745 29.357C67.3478 29.6316 67.3202 29.915 67.2918 30.2073L66.2299 30.104ZM67.2032 27.9021L67.2895 27.014L70.3053 27.3073L70.219 28.1954L67.2032 27.9021Z" fill="white"/>
	<path d="M60.5666 31.0645C60.6062 30.7597 60.6477 30.4389 60.6913 30.1023C60.7349 29.7657 60.7755 29.4465 60.8131 29.1447L61.0663 27.2003C61.1118 26.8478 61.1529 26.531 61.1896 26.25C61.2282 25.966 61.2653 25.6811 61.301 25.3951L62.6487 25.1251C62.7962 25.3846 62.941 25.637 63.0831 25.8822C63.2252 26.1274 63.3831 26.4004 63.557 26.7012L64.5331 28.4031C64.6911 28.6761 64.8533 28.9573 65.0197 29.2466C65.1861 29.536 65.3448 29.8127 65.4958 30.0768L64.4199 30.2924C64.2723 30.0199 64.1206 29.7392 63.9646 29.4503C63.8086 29.1614 63.6611 28.8889 63.522 28.6328L62.1844 26.1514L62.1025 26.1678L61.8108 28.9447C61.7787 29.2481 61.7455 29.5658 61.7114 29.8979C61.6793 30.2271 61.6464 30.5461 61.6127 30.8548L60.5666 31.0645ZM61.5095 29.6441L61.4556 28.8339L63.9351 28.3371L64.1789 29.1092L61.5095 29.6441Z" fill="white"/>
	<path d="M55.6808 33.6645C55.5289 33.4131 55.3816 33.1694 55.2389 32.9332C55.0963 32.6971 54.9379 32.4349 54.7638 32.1468L53.8153 30.5771C53.6373 30.2824 53.4756 30.0149 53.3303 29.7744C53.185 29.5339 53.0351 29.2858 52.8807 29.0301L55.89 27.2118L56.3476 27.9691C56.1439 28.0921 55.924 28.225 55.6878 28.3677C55.4538 28.5091 55.1776 28.676 54.8591 28.8684L53.7412 29.5439L53.8556 28.6319C54.01 28.8875 54.1606 29.1367 54.3072 29.3793C54.4525 29.6198 54.6142 29.8874 54.7922 30.1821L55.5678 31.4658C55.7419 31.7539 55.9003 32.0161 56.043 32.2522C56.1857 32.4884 56.3336 32.7332 56.4868 32.9867L55.6847 32.6284L56.8124 31.947C57.0789 31.786 57.3313 31.6335 57.5696 31.4895C57.808 31.3455 58.0366 31.2074 58.2554 31.0752L58.7129 31.8324L55.6808 33.6645ZM55.1687 31.2677L54.7347 30.5495L55.5992 30.0272C55.8895 29.8518 56.1387 29.7012 56.3467 29.5756C56.5547 29.4499 56.7551 29.3288 56.9479 29.2123L57.3819 29.9305C57.1782 30.0536 56.9724 30.1779 56.7644 30.3036C56.5564 30.4293 56.3116 30.5772 56.0299 30.7474L55.1687 31.2677Z" fill="white"/>
	<path d="M53.8399 35.4909C53.5375 35.8041 53.2167 36.0399 52.8776 36.198C52.5366 36.3544 52.1917 36.4348 51.8426 36.4392C51.4918 36.4419 51.1477 36.3719 50.8104 36.2292C50.4731 36.083 50.156 35.8667 49.8591 35.5801C49.4675 35.2022 49.1961 34.7872 49.0449 34.3351C48.8936 33.8795 48.873 33.4216 48.983 32.9613C49.0912 32.4993 49.3404 32.0661 49.7307 31.6618C49.852 31.5361 49.9797 31.4202 50.1139 31.314C50.2498 31.206 50.386 31.1105 50.5224 31.0275C50.6605 30.9427 50.7935 30.8705 50.9213 30.811C51.0491 30.7478 51.1682 30.6992 51.2786 30.665L51.9363 31.416C51.7136 31.4719 51.5116 31.5408 51.3304 31.6228C51.1475 31.703 50.9844 31.7936 50.8411 31.8946C50.6997 31.9938 50.5736 32.1007 50.4628 32.2155C50.2308 32.4559 50.077 32.7227 50.0017 33.0158C49.9281 33.3071 49.9414 33.6049 50.0417 33.9093C50.1419 34.2136 50.3369 34.5056 50.6265 34.7851C50.814 34.9662 51.018 35.1103 51.2383 35.2174C51.4585 35.3209 51.686 35.3786 51.9208 35.3906C52.1555 35.4025 52.3893 35.3608 52.6221 35.2654C52.8549 35.1664 53.0785 35.0058 53.293 34.7836C53.3773 34.6961 53.4571 34.6025 53.5324 34.5027C53.6058 34.4012 53.6728 34.2935 53.7334 34.1796C53.794 34.0658 53.8447 33.944 53.8854 33.8144C53.926 33.6848 53.9567 33.5473 53.9774 33.4019L54.7298 34.0385C54.7015 34.1589 54.659 34.2832 54.6022 34.4113C54.5435 34.5377 54.4751 34.6633 54.3967 34.7882C54.3201 34.9113 54.2336 35.0319 54.1373 35.1499C54.0427 35.2698 53.9436 35.3834 53.8399 35.4909Z" fill="white"/>
	<path d="M50.3734 39.9289C50.2469 40.1626 50.1294 40.3797 50.0209 40.58C49.9125 40.7804 49.8143 40.9618 49.7263 41.1243C49.6395 41.2846 49.5648 41.4226 49.5022 41.5384C49.2439 41.3986 48.9935 41.263 48.7509 41.1317C48.5082 41.0003 48.2388 40.8545 47.9428 40.6942L46.3299 39.8212C46.0272 39.6573 45.7523 39.5085 45.5052 39.3747C45.2581 39.241 45.0032 39.103 44.7405 38.9608C44.8827 38.6981 45.0418 38.4043 45.2177 38.0792C45.3936 37.7542 45.5714 37.4259 45.7509 37.0942C45.9184 36.7847 46.0861 36.5387 46.254 36.3562C46.4197 36.1724 46.5859 36.0436 46.7525 35.9697C46.9181 35.8924 47.0839 35.8627 47.2498 35.8806C47.4147 35.895 47.5818 35.948 47.7509 36.0396C47.9535 36.1492 48.11 36.2829 48.2204 36.4405C48.3286 36.5969 48.3967 36.7662 48.4248 36.9484C48.4506 37.1293 48.4418 37.3131 48.3983 37.4997L48.4752 37.5413C48.6106 37.3814 48.7626 37.2521 48.9312 37.1534C49.0975 37.0535 49.2815 37.0034 49.4832 37.0032C49.6838 36.9995 49.9032 37.0621 50.1413 37.1911C50.3372 37.2971 50.499 37.4264 50.6265 37.5789C50.7531 37.728 50.8344 37.9102 50.8704 38.1254C50.9064 38.3407 50.8863 38.596 50.8098 38.8914C50.7334 39.1868 50.5879 39.5326 50.3734 39.9289ZM49.2595 40.224L49.6788 39.4493C49.803 39.22 49.878 39.0202 49.9039 38.8501C49.9288 38.6764 49.9104 38.5297 49.8486 38.4099C49.7845 38.2889 49.6813 38.1898 49.5388 38.1127C49.3162 37.9922 49.1109 37.9833 48.923 38.0859C48.7362 38.1863 48.5639 38.3823 48.406 38.6739L47.833 39.7324L47.1285 39.3511L47.6834 38.3259C47.787 38.1345 47.843 37.9619 47.8514 37.8081C47.8588 37.6509 47.8281 37.5162 47.7592 37.4041C47.6904 37.292 47.5925 37.2016 47.4656 37.1329C47.2631 37.0233 47.0773 37.0048 46.9085 37.0775C46.7386 37.1467 46.585 37.3082 46.4476 37.562L45.9704 38.4435C46.1351 38.5327 46.3021 38.6231 46.4713 38.7146C46.6405 38.8062 46.8297 38.9087 47.0389 39.0219L48.2377 39.6709C48.4358 39.7781 48.6161 39.8757 48.7786 39.9637C48.9389 40.0504 49.0992 40.1372 49.2595 40.224Z" fill="white"/>
	<path d="M66.4761 40.4154C66.4058 40.4456 66.3097 40.5172 66.2616 40.5737C66.1358 40.7206 66.0138 40.8638 65.7401 41.1841C65.6069 41.3385 65.4516 41.5156 65.3998 41.5797C65.2962 41.7003 65.0743 41.9565 64.7156 42.3747C64.5935 42.5179 64.4345 42.7025 64.3642 42.7854C64.2939 42.8683 64.2089 42.97 64.1719 43.0115C64.1349 43.0529 63.9573 43.2564 63.7835 43.4636C63.606 43.6708 63.3286 43.9949 63.1658 44.1833C62.8441 44.5525 62.4668 44.9896 62.3596 45.1177C62.3226 45.1629 62.256 45.2382 62.2116 45.291C62.0008 45.5359 61.0428 46.6549 60.8579 46.8697C60.7433 47.0053 60.6249 47.141 60.5953 47.1749C60.5657 47.205 60.44 47.352 60.3179 47.4952C59.9555 47.9247 59.8778 48.0151 59.8186 48.0792C59.6744 48.2299 59.36 48.6293 59.2231 48.8403C58.9235 49.2886 58.5611 50.1439 58.4686 50.6224C58.4575 50.6827 58.439 50.7769 58.4316 50.8297C58.3614 51.1763 58.3392 51.8997 58.3836 52.3368C58.5611 54.0851 59.6707 55.6864 61.2426 56.4625C61.9897 56.8318 62.685 56.99 63.5357 56.9863C63.8427 56.9825 64.3235 56.9411 64.3679 56.9147C64.379 56.9072 64.4604 56.8921 64.5528 56.877C65.0632 56.7979 65.8732 56.4324 66.3725 56.0481L66.6943 55.7994L66.9162 55.9803C67.5191 56.4776 68.1775 56.7715 69.1169 56.9637C69.4202 57.0277 70.5446 56.9938 70.8774 56.9109C70.9292 56.8996 71.0106 56.8808 71.0624 56.8732C71.2436 56.8393 71.6689 56.6999 71.8724 56.6057C72.8451 56.1687 73.6033 55.5093 74.1914 54.5937C74.3467 54.3526 74.6796 53.6857 74.7018 53.5689C74.7092 53.5425 74.724 53.4897 74.7388 53.4483C74.8164 53.2373 74.8386 53.1544 74.9126 52.7889C75.0347 52.171 75.0236 51.263 74.8867 50.6413C74.7536 50.0309 74.4725 49.3565 74.1655 48.8968C73.9769 48.618 73.914 48.5388 73.3037 47.8154C73.263 47.7627 72.9782 47.4236 72.6713 47.0619C72.368 46.7001 72.0536 46.3271 71.9685 46.2329C71.8872 46.1387 71.7429 45.9692 71.6504 45.8562C71.5543 45.7431 71.4211 45.5811 71.3509 45.4982C71.2806 45.4153 70.7332 44.771 70.1377 44.0665C69.5422 43.3619 69.0207 42.7477 68.9764 42.7025C68.9357 42.6573 68.8802 42.597 68.8617 42.5706C68.8247 42.5217 68.0628 41.6324 68.0295 41.5985C68.0184 41.5872 67.8964 41.444 67.7521 41.2783C67.6116 41.1162 67.4673 40.9505 67.4377 40.9203C67.4081 40.8864 67.3009 40.7696 67.201 40.6566C66.931 40.3627 66.7387 40.2986 66.4761 40.4154ZM67.3416 42.2956C67.6449 42.646 67.9444 42.9964 68.0073 43.068C68.0702 43.1396 68.2218 43.3167 68.3439 43.4636C68.4659 43.6068 68.5732 43.7349 68.5843 43.7462C68.6694 43.8328 69.4276 44.7258 70.9625 46.5494C71.3657 47.0279 71.7244 47.4537 71.7614 47.4952C71.7984 47.5366 71.9981 47.774 72.2052 48.0227C72.4124 48.2713 72.6121 48.5087 72.6491 48.5501C73.104 49.0626 73.4332 49.5222 73.6218 49.9066C73.7328 50.1251 73.9103 50.6488 73.9362 50.8108C73.9473 50.8711 73.9732 51.0331 73.9954 51.1688C74.0434 51.4325 74.0508 52.0957 74.0102 52.3745C73.9621 52.691 73.9436 52.7701 73.8363 53.0979C73.4184 54.3676 72.4124 55.4076 71.1918 55.822C70.5113 56.0556 69.6236 56.0858 68.8247 55.9011C68.4327 55.8145 67.6412 55.3774 67.4229 55.1325C67.3564 55.0534 67.3564 55.0496 67.5043 54.8122C67.8335 54.2848 68.1479 53.5387 68.2329 53.0904C68.2403 53.0602 68.2625 52.966 68.281 52.8831C68.3217 52.7286 68.3772 52.3594 68.4179 52.0165C68.4548 51.7076 68.4438 50.9389 68.3994 50.5998C68.281 49.7031 67.9703 48.7611 67.4155 47.6044C67.2824 47.3256 67.1308 47.0468 67.0827 46.9865C66.9273 46.7981 66.6203 46.7567 66.4169 46.8923C66.3023 46.9677 66.0693 47.3746 65.6809 48.1734C65.1853 49.1982 64.9597 49.9028 64.8672 50.7091C64.845 50.8862 64.8487 51.636 64.8672 51.8093C64.9153 52.1974 64.9338 52.3066 64.9967 52.6194C65.1631 53.4521 65.5182 54.3262 65.9102 54.8725C65.9842 54.9743 66.0286 55.0685 66.0101 55.0835C65.3369 55.6751 64.4604 55.9991 63.5172 56.0029C62.9033 56.0066 62.5482 55.9426 61.9823 55.7241C60.7248 55.2418 59.667 53.9796 59.4081 52.6571C59.3341 52.2803 59.323 52.1597 59.3267 51.7151C59.3267 50.8636 59.5523 50.1251 60.0294 49.3904C60.1626 49.1794 61.5865 47.4838 62.2782 46.7077C62.3004 46.6851 63.3027 45.5171 64.5084 44.1117C66.2653 42.0657 66.7091 41.5684 66.7461 41.6061C66.772 41.6324 67.0383 41.9414 67.3416 42.2956ZM66.7942 48.5577C67.0161 49.0701 67.2972 49.8839 67.3453 50.1628C67.3564 50.208 67.3859 50.3738 67.4155 50.5282C67.4562 50.7317 67.4673 50.9992 67.4599 51.4702C67.4451 52.2238 67.386 52.6156 67.1936 53.2034C67.0642 53.5915 66.7498 54.2584 66.6906 54.2584C66.6758 54.2584 66.6166 54.1868 66.5612 54.0964C66.4761 53.9607 66.4169 53.8326 66.1802 53.2976C66.1358 53.2034 65.9657 52.6118 65.9435 52.4875C65.9361 52.4348 65.9102 52.2916 65.8917 52.1672C65.7179 51.1725 65.8066 50.37 66.195 49.3904C66.3355 49.0324 66.6573 48.3429 66.6832 48.3429C66.6906 48.3429 66.7424 48.4409 66.7942 48.5577Z" fill="white"/>
</svg>
