<svg width="107" height="106" viewBox="0 0 107 106" fill="none" xmlns="http://www.w3.org/2000/svg"><g opacity=".32" clip-path="url(#clip0_490_59537)" fill-rule="evenodd" clip-rule="evenodd"><path d="M80 106H27A26.499 26.499 0 01.5 79.5v-53A26.501 26.501 0 0127 0h53a26.5 26.5 0 0126.5 26.5v53A26.5 26.5 0 0180 106z" fill="#426ED1"/><path d="M50.188 29.813H80A14.907 14.907 0 0081.524.076C81.017.048 80.515 0 80 0H27A26.501 26.501 0 00.5 26.5v53a49.688 49.688 0 0149.688-49.688z" fill="#7B99DF"/><path d="M80 53a26.5 26.5 0 1026.5 26.5v-53A26.5 26.5 0 0180 53z" fill="#648CE6"/><path d="M75.164 28.209a4.969 4.969 0 016.807 5.348l-7.347 47.765a4.968 4.968 0 01-7.859 3.244L45.1 68.602a3.313 3.313 0 01-.31-5.075l20.218-19.095a.828.828 0 00-1.02-1.295l-26.73 17.432a9.937 9.937 0 01-7.838 1.317L16.877 58.75a3.313 3.313 0 01-.461-6.275l58.748-24.266z" fill="#fff"/></g><defs><clipPath id="clip0_490_59537"><path fill="#fff" transform="translate(.5)" d="M0 0h106v106H0z"/></clipPath></defs></svg>